<svg xmlns="http://www.w3.org/2000/svg" width="1024" height="1024" viewBox="0 0 1024 1024">
<path d="M 456,550 Z" fill="black"/>
<path d="M 196,485 L 195,486 L 188,486 L 187,487 L 184,487 L 183,488 L 180,488 L 179,489 L 177,489 L 176,490 L 175,490 L 174,491 L 173,491 L 172,492 L 171,492 L 170,493 L 169,493 L 168,494 L 167,494 L 165,496 L 164,496 L 162,498 L 161,498 L 150,509 L 150,510 L 147,513 L 147,514 L 146,515 L 146,516 L 144,518 L 144,519 L 143,520 L 143,522 L 142,523 L 142,524 L 141,525 L 141,527 L 140,528 L 140,530 L 139,531 L 139,534 L 138,535 L 138,540 L 137,541 L 137,553 L 138,554 L 138,559 L 139,560 L 139,564 L 140,565 L 140,566 L 141,567 L 141,569 L 142,570 L 142,572 L 143,573 L 143,574 L 144,575 L 144,576 L 145,577 L 145,578 L 147,580 L 147,581 L 149,583 L 149,584 L 148,585 L 147,585 L 141,591 L 140,591 L 135,596 L 132,596 L 125,603 L 124,603 L 113,614 L 113,615 L 112,616 L 111,616 L 111,617 L 110,618 L 109,618 L 109,619 L 108,620 L 107,620 L 107,621 L 106,622 L 105,622 L 89,638 L 89,639 L 87,641 L 87,643 L 86,644 L 86,650 L 87,651 L 87,652 L 88,653 L 88,654 L 91,657 L 92,657 L 93,658 L 94,658 L 95,659 L 102,659 L 103,658 L 104,658 L 105,657 L 106,657 L 150,613 L 150,610 L 158,602 L 159,602 L 163,598 L 164,599 L 165,599 L 167,601 L 168,601 L 170,603 L 172,603 L 173,604 L 174,604 L 175,605 L 176,605 L 177,606 L 179,606 L 180,607 L 182,607 L 183,608 L 186,608 L 187,609 L 192,609 L 193,610 L 206,610 L 207,609 L 212,609 L 213,608 L 216,608 L 217,607 L 219,607 L 220,606 L 222,606 L 223,605 L 224,605 L 225,604 L 227,604 L 229,602 L 230,602 L 231,601 L 232,601 L 234,599 L 235,599 L 237,597 L 238,597 L 249,586 L 249,585 L 252,582 L 252,581 L 253,580 L 253,579 L 255,577 L 255,576 L 256,575 L 256,573 L 257,572 L 257,571 L 258,570 L 258,568 L 259,567 L 259,565 L 260,564 L 260,561 L 261,560 L 261,556 L 262,555 L 262,541 L 261,540 L 261,535 L 260,534 L 260,531 L 259,530 L 259,528 L 258,527 L 258,525 L 257,524 L 257,523 L 256,522 L 256,520 L 255,519 L 255,518 L 253,516 L 253,515 L 252,514 L 252,513 L 249,510 L 249,509 L 238,498 L 237,498 L 235,496 L 234,496 L 232,494 L 231,494 L 230,493 L 229,493 L 228,492 L 227,492 L 226,491 L 225,491 L 224,490 L 223,490 L 222,489 L 220,489 L 219,488 L 217,488 L 216,487 L 212,487 L 211,486 L 206,486 L 205,485 Z" fill="black"/>
<path d="M 399,460 L 398,461 L 377,461 L 377,547 L 376,548 L 376,553 L 375,554 L 375,556 L 370,561 L 368,561 L 367,562 L 362,562 L 361,561 L 361,564 L 360,565 L 360,569 L 359,570 L 359,576 L 358,577 L 358,580 L 359,580 L 360,581 L 376,581 L 377,580 L 379,580 L 380,579 L 382,579 L 383,578 L 384,578 L 385,577 L 386,577 L 387,576 L 388,576 L 394,570 L 394,569 L 396,567 L 396,566 L 397,565 L 397,563 L 398,562 L 398,559 L 399,558 Z" fill="black"/>
<path d="M 810,458 L 809,459 L 805,459 L 804,460 L 801,460 L 800,461 L 799,461 L 798,462 L 796,462 L 794,464 L 793,464 L 792,465 L 791,465 L 788,468 L 787,468 L 784,471 L 784,472 L 781,475 L 781,476 L 779,478 L 779,479 L 778,480 L 778,481 L 777,482 L 777,483 L 776,484 L 776,486 L 775,487 L 775,489 L 774,490 L 774,493 L 773,494 L 773,512 L 774,513 L 774,516 L 775,517 L 775,519 L 776,520 L 776,522 L 777,523 L 777,524 L 778,525 L 778,526 L 780,528 L 780,529 L 783,532 L 783,533 L 787,537 L 788,537 L 791,540 L 792,540 L 794,542 L 795,542 L 796,543 L 797,543 L 798,544 L 799,544 L 800,545 L 802,545 L 803,546 L 806,546 L 807,547 L 814,547 L 815,548 L 822,548 L 823,547 L 829,547 L 830,546 L 832,546 L 833,545 L 835,545 L 836,544 L 837,544 L 838,543 L 839,543 L 840,542 L 841,542 L 843,540 L 844,540 L 847,537 L 848,537 L 853,532 L 853,531 L 852,531 L 849,528 L 848,528 L 845,525 L 844,525 L 838,519 L 837,519 L 836,520 L 836,521 L 832,525 L 831,525 L 829,527 L 828,527 L 827,528 L 826,528 L 825,529 L 822,529 L 821,530 L 813,530 L 812,529 L 809,529 L 808,528 L 807,528 L 806,527 L 805,527 L 798,520 L 798,519 L 797,518 L 797,516 L 796,515 L 796,511 L 795,510 L 796,509 L 855,509 L 855,491 L 854,490 L 854,486 L 853,485 L 853,483 L 852,482 L 852,481 L 851,480 L 851,479 L 850,478 L 850,477 L 849,476 L 849,475 L 845,471 L 845,470 L 844,469 L 843,469 L 839,465 L 838,465 L 836,463 L 834,463 L 833,462 L 832,462 L 831,461 L 830,461 L 829,460 L 826,460 L 825,459 L 821,459 L 820,458 Z" fill="black"/>
<path d="M 720,458 L 719,459 L 714,459 L 713,460 L 711,460 L 710,461 L 708,461 L 707,462 L 706,462 L 705,463 L 704,463 L 703,464 L 702,464 L 700,466 L 699,466 L 691,474 L 691,475 L 689,477 L 689,478 L 688,479 L 688,480 L 687,481 L 687,482 L 686,483 L 686,484 L 685,485 L 685,487 L 684,488 L 684,491 L 683,492 L 683,496 L 682,497 L 682,510 L 683,511 L 683,515 L 684,516 L 684,518 L 685,519 L 685,521 L 686,522 L 686,523 L 687,524 L 687,525 L 688,526 L 688,527 L 690,529 L 690,530 L 693,533 L 693,534 L 695,536 L 696,536 L 700,540 L 701,540 L 703,542 L 704,542 L 705,543 L 706,543 L 707,544 L 709,544 L 710,545 L 711,545 L 712,546 L 715,546 L 716,547 L 722,547 L 723,548 L 731,548 L 732,547 L 738,547 L 739,546 L 741,546 L 742,545 L 744,545 L 745,544 L 746,544 L 747,543 L 749,543 L 751,541 L 752,541 L 754,539 L 755,539 L 762,532 L 762,531 L 760,529 L 759,529 L 755,525 L 754,525 L 750,521 L 749,521 L 747,519 L 745,521 L 745,522 L 742,525 L 741,525 L 739,527 L 738,527 L 737,528 L 736,528 L 735,529 L 732,529 L 731,530 L 722,530 L 721,529 L 718,529 L 717,528 L 716,528 L 715,527 L 714,527 L 708,521 L 708,520 L 707,519 L 707,518 L 706,517 L 706,514 L 705,513 L 705,510 L 706,509 L 765,509 L 765,495 L 764,494 L 764,489 L 763,488 L 763,485 L 762,484 L 762,482 L 761,481 L 761,480 L 760,479 L 760,478 L 759,477 L 759,476 L 757,474 L 757,473 L 750,466 L 749,466 L 747,464 L 746,464 L 745,463 L 744,463 L 743,462 L 742,462 L 741,461 L 739,461 L 738,460 L 736,460 L 735,459 L 730,459 L 729,458 Z" fill="black"/>
<path d="M 638,458 L 637,459 L 631,459 L 630,460 L 627,460 L 626,461 L 625,461 L 624,462 L 623,462 L 622,463 L 621,463 L 620,464 L 619,464 L 613,470 L 613,471 L 611,473 L 611,474 L 610,475 L 610,477 L 609,478 L 609,481 L 608,482 L 608,488 L 609,489 L 609,492 L 610,493 L 610,494 L 611,495 L 611,496 L 612,497 L 612,498 L 617,503 L 618,503 L 620,505 L 621,505 L 622,506 L 624,506 L 625,507 L 626,507 L 627,508 L 629,508 L 630,509 L 632,509 L 633,510 L 635,510 L 636,511 L 638,511 L 639,512 L 641,512 L 642,513 L 644,513 L 645,514 L 646,514 L 647,515 L 648,515 L 649,516 L 650,516 L 652,518 L 652,519 L 653,520 L 653,524 L 652,525 L 652,526 L 650,528 L 649,528 L 648,529 L 647,529 L 646,530 L 633,530 L 632,529 L 629,529 L 628,528 L 627,528 L 625,526 L 624,526 L 622,524 L 621,524 L 619,522 L 619,521 L 617,521 L 617,522 L 605,534 L 610,539 L 611,539 L 613,541 L 614,541 L 615,542 L 616,542 L 617,543 L 618,543 L 619,544 L 620,544 L 621,545 L 623,545 L 624,546 L 627,546 L 628,547 L 634,547 L 635,548 L 645,548 L 646,547 L 650,547 L 651,546 L 654,546 L 655,545 L 657,545 L 658,544 L 659,544 L 660,543 L 661,543 L 664,540 L 665,540 L 669,536 L 669,535 L 671,533 L 671,532 L 672,531 L 672,530 L 673,529 L 673,527 L 674,526 L 674,513 L 673,512 L 673,510 L 672,509 L 672,508 L 671,507 L 671,506 L 666,501 L 665,501 L 663,499 L 662,499 L 661,498 L 659,498 L 658,497 L 657,497 L 656,496 L 654,496 L 653,495 L 651,495 L 650,494 L 648,494 L 647,493 L 644,493 L 643,492 L 641,492 L 640,491 L 638,491 L 637,490 L 636,490 L 635,489 L 634,489 L 630,485 L 630,484 L 629,483 L 629,481 L 630,480 L 630,479 L 632,477 L 633,477 L 634,476 L 635,476 L 636,475 L 645,475 L 646,476 L 649,476 L 650,477 L 651,477 L 652,478 L 653,478 L 655,480 L 656,480 L 660,484 L 664,480 L 665,480 L 673,472 L 674,472 L 674,471 L 673,471 L 667,465 L 666,465 L 664,463 L 663,463 L 662,462 L 660,462 L 659,461 L 658,461 L 657,460 L 653,460 L 652,459 L 646,459 L 645,458 Z" fill="black"/>
<path d="M 448,458 L 447,459 L 443,459 L 442,460 L 439,460 L 438,461 L 437,461 L 436,462 L 434,462 L 433,463 L 432,463 L 430,465 L 429,465 L 427,467 L 426,467 L 418,475 L 418,476 L 416,478 L 416,479 L 415,480 L 415,481 L 414,482 L 414,483 L 413,484 L 413,486 L 412,487 L 412,488 L 411,489 L 411,493 L 410,494 L 410,513 L 411,514 L 411,517 L 412,518 L 412,520 L 413,521 L 413,523 L 414,524 L 414,525 L 415,526 L 415,527 L 417,529 L 417,530 L 427,540 L 428,540 L 429,541 L 430,541 L 432,543 L 433,543 L 434,544 L 436,544 L 437,545 L 439,545 L 440,546 L 442,546 L 443,547 L 450,547 L 451,548 L 458,548 L 459,547 L 465,547 L 466,546 L 469,546 L 470,545 L 471,545 L 472,544 L 474,544 L 475,543 L 476,543 L 477,542 L 478,542 L 480,540 L 481,540 L 483,538 L 484,538 L 491,531 L 491,530 L 493,528 L 493,527 L 495,525 L 495,524 L 496,523 L 496,521 L 497,520 L 497,519 L 498,518 L 498,515 L 499,514 L 499,511 L 500,510 L 500,496 L 499,495 L 499,491 L 498,490 L 498,488 L 497,487 L 497,485 L 496,484 L 496,483 L 495,482 L 495,481 L 494,480 L 494,479 L 492,477 L 492,476 L 488,472 L 488,471 L 487,471 L 482,466 L 481,466 L 479,464 L 478,464 L 477,463 L 476,463 L 475,462 L 473,462 L 472,461 L 471,461 L 470,460 L 467,460 L 466,459 L 461,459 L 460,458 Z" fill="black"/>
<path d="M 159,453 L 158,454 L 157,454 L 154,457 L 154,463 L 155,464 L 155,465 L 157,467 L 158,467 L 159,468 L 263,468 L 264,467 L 265,467 L 266,466 L 267,466 L 267,465 L 268,464 L 268,463 L 269,462 L 269,458 L 267,456 L 267,455 L 266,454 L 265,454 L 264,453 Z" fill="black"/>
<path d="M 866,422 L 866,545 L 889,545 L 889,507 L 890,506 L 892,508 L 892,509 L 895,512 L 895,513 L 899,517 L 899,518 L 901,520 L 901,521 L 904,524 L 904,525 L 907,528 L 907,529 L 911,533 L 911,534 L 914,537 L 914,538 L 918,542 L 918,543 L 920,545 L 948,545 L 945,542 L 945,541 L 941,537 L 941,536 L 938,533 L 938,532 L 935,529 L 935,528 L 932,525 L 932,524 L 929,521 L 929,520 L 925,516 L 925,515 L 922,512 L 922,511 L 919,508 L 919,507 L 916,504 L 916,503 L 912,499 L 915,496 L 915,495 L 921,489 L 921,488 L 928,481 L 928,480 L 935,473 L 935,472 L 941,466 L 941,465 L 945,461 L 945,460 L 944,461 L 919,461 L 915,465 L 915,466 L 908,473 L 908,474 L 901,481 L 901,482 L 895,488 L 895,489 L 891,493 L 891,494 L 890,495 L 889,494 L 889,422 Z" fill="black"/>
<path d="M 511,422 L 511,545 L 533,545 L 533,537 L 534,536 L 540,542 L 541,542 L 543,544 L 544,544 L 545,545 L 547,545 L 548,546 L 550,546 L 551,547 L 554,547 L 555,548 L 566,548 L 567,547 L 570,547 L 571,546 L 574,546 L 575,545 L 576,545 L 577,544 L 578,544 L 580,542 L 581,542 L 583,540 L 584,540 L 590,534 L 590,533 L 592,531 L 592,530 L 594,528 L 594,527 L 595,526 L 595,525 L 596,524 L 596,523 L 597,522 L 597,520 L 598,519 L 598,517 L 599,516 L 599,513 L 600,512 L 600,492 L 599,491 L 599,488 L 598,487 L 598,485 L 597,484 L 597,482 L 596,481 L 596,480 L 594,478 L 594,477 L 593,476 L 593,475 L 589,471 L 589,470 L 588,469 L 587,469 L 583,465 L 582,465 L 580,463 L 579,463 L 578,462 L 577,462 L 576,461 L 575,461 L 574,460 L 572,460 L 571,459 L 568,459 L 567,458 L 555,458 L 554,459 L 550,459 L 549,460 L 547,460 L 546,461 L 545,461 L 544,462 L 543,462 L 542,463 L 541,463 L 537,467 L 536,467 L 536,468 L 535,469 L 534,468 L 534,422 Z" fill="black"/>
<path d="M 159,420 L 158,421 L 157,421 L 155,423 L 155,424 L 154,425 L 154,429 L 155,430 L 155,431 L 158,434 L 227,434 L 230,431 L 230,429 L 231,428 L 231,426 L 230,425 L 230,424 L 227,421 L 226,421 L 225,420 Z" fill="black"/>
<path d="M 386,419 L 385,420 L 383,420 L 382,421 L 381,421 L 380,422 L 379,422 L 377,424 L 377,425 L 376,426 L 376,427 L 375,428 L 375,430 L 374,431 L 374,435 L 375,436 L 375,438 L 376,439 L 376,440 L 378,442 L 378,443 L 379,443 L 381,445 L 382,445 L 383,446 L 386,446 L 387,447 L 389,447 L 390,446 L 393,446 L 394,445 L 395,445 L 398,442 L 399,442 L 399,441 L 400,440 L 400,439 L 401,438 L 401,436 L 402,435 L 402,431 L 401,430 L 401,428 L 400,427 L 400,426 L 399,425 L 399,424 L 397,422 L 396,422 L 395,421 L 394,421 L 393,420 L 391,420 L 390,419 Z" fill="black"/>
<path d="M 139,355 L 138,356 L 136,356 L 135,357 L 134,357 L 132,359 L 131,359 L 125,365 L 125,366 L 124,367 L 124,368 L 123,369 L 123,370 L 122,371 L 122,373 L 121,374 L 121,546 L 122,546 L 122,536 L 123,535 L 123,530 L 124,529 L 124,527 L 125,526 L 125,524 L 126,523 L 126,521 L 127,520 L 127,519 L 128,518 L 128,516 L 129,515 L 129,514 L 130,513 L 130,512 L 132,510 L 132,509 L 133,508 L 133,507 L 136,504 L 136,376 L 137,375 L 137,374 L 140,371 L 141,371 L 142,370 L 144,370 L 145,369 L 236,369 L 237,370 L 237,403 L 238,404 L 238,406 L 239,407 L 239,409 L 241,411 L 241,412 L 247,418 L 248,418 L 249,419 L 250,419 L 251,420 L 253,420 L 254,421 L 257,421 L 258,422 L 287,422 L 288,423 L 288,556 L 287,557 L 287,558 L 284,561 L 283,561 L 282,562 L 277,562 L 276,563 L 276,566 L 275,567 L 275,570 L 274,571 L 274,573 L 273,574 L 273,575 L 272,576 L 272,577 L 281,577 L 282,576 L 286,576 L 287,575 L 289,575 L 290,574 L 291,574 L 293,572 L 294,572 L 298,568 L 298,567 L 300,565 L 300,564 L 301,563 L 301,561 L 302,560 L 302,557 L 303,556 L 303,411 L 302,410 L 302,409 L 277,384 L 277,383 L 276,383 L 275,382 L 275,381 L 274,380 L 273,380 L 272,379 L 272,378 L 250,356 L 249,356 L 248,355 Z" fill="black"/>
</svg>